<?xml version="1.0" encoding="utf-8"?>
<!-- Generator: Adobe Illustrator 27.0.0, SVG Export Plug-In . SVG Version: 6.00 Build 0)  -->
<svg version="1.1" id="图层_1" xmlns="http://www.w3.org/2000/svg" xmlns:xlink="http://www.w3.org/1999/xlink" x="0px" y="0px"
	 viewBox="0 0 200 200" style="enable-background:new 0 0 200 200;" xml:space="preserve">
<style type="text/css">
	.st0{fill:#FFFFF0;}
	.st1{fill:#EFB635;}
	.st2{opacity:0.2;fill:#005213;enable-background:new    ;}
</style>
<path class="st0" d="M90,60h60v20H90V60z"/>
<path class="st1" d="M30,50h62.3l7.6,35.5H170V160H30L30,50z"/>
<path class="st2" d="M35,160H25V60c0-8.3,6.7-15,15-15l0,0h55v10H40c-2.8,0-5,2.2-5,5l0,0V160z"/>
<path d="M55,130h20c3.3,0,5,1.7,5,5l0,0c0,3.3-1.7,5-5,5H55c-3.3,0-5-1.7-5-5l0,0C50,131.7,51.7,130,55,130z"/>
<path d="M165,80h-5V65c0-8.3-6.7-15-15-15H96.4l-1.6-6.2C94.3,41.6,92.3,40,90,40H35c-8.3,0-15,6.7-15,15l0,0v100
	c0,8.3,6.7,15,15,15h130c8.3,0,15-6.7,15-15V95C180,86.7,173.3,80,165,80L165,80z M145,60c2.8,0,5,2.2,5,5v15h-46.1l-5-20L145,60z
	 M170,155c0,2.8-2.2,5-5,5H35c-2.8,0-5-2.2-5-5V55c0-2.8,2.2-5,5-5c0,0,0,0,0,0h51.1l9.1,36.2c0.6,2.2,2.6,3.8,4.8,3.8h65
	c2.8,0,5,2.2,5,5V155z"/>
</svg>
