<?xml version="1.0" encoding="utf-8"?>
<!-- Generator: Adobe Illustrator 27.0.0, SVG Export Plug-In . SVG Version: 6.00 Build 0)  -->
<svg version="1.1" id="图层_1" xmlns="http://www.w3.org/2000/svg" xmlns:xlink="http://www.w3.org/1999/xlink" x="0px" y="0px"
	 viewBox="0 0 200 200" style="enable-background:new 0 0 200 200;" xml:space="preserve">
<style type="text/css">
	.st0{fill:#4F7DE0;}
	.st1{fill:#444444;}
</style>
<path class="st0" d="M43.8,158.6V49.4c0-7.8,6.3-14.1,14.1-14.1h84.6c7.8,0,14.1,6.3,14.1,14.1v109.2c0,7.8-6.3,14.1-14.1,14.1H57.9
	C50.1,172.8,43.8,166.4,43.8,158.6z"/>
<path d="M142.9,186H57.6c-15.3,0-27.7-11.7-27.7-26.2v-12.4c0-2.6,2.1-4.7,4.7-4.7s4.7,2.1,4.7,4.7v12.4c0,9.2,8.2,16.7,18.3,16.7
	h85.3c10.1,0,18.3-7.5,18.3-16.7V48.1c0-9.2-8.2-16.7-18.3-16.7H57.6c-10.1,0-18.3,7.5-18.3,16.7v82.2c0,2.6-2.1,4.7-4.7,4.7
	s-4.7-2.1-4.7-4.7V48.1C29.9,33.7,42.3,22,57.6,22h85.3c15.3,0,27.7,11.7,27.7,26.2v111.7C170.5,174.3,158.1,186,142.9,186
	L142.9,186z"/>
<path class="st1" d="M102.5,68H57.7c-2.5,0-4.6-2.1-4.6-4.6s2.1-4.6,4.6-4.6h44.8c2.5,0,4.6,2.1,4.6,4.6S105,68,102.5,68z
	 M115.3,95.7H57.7c-2.5,0-4.6-2.1-4.6-4.6s2.1-4.6,4.6-4.6h57.6c2.5,0,4.6,2.1,4.6,4.6S117.9,95.7,115.3,95.7z M115.3,123.5H57.7
	c-2.5,0-4.6-2.1-4.6-4.6c0-2.5,2.1-4.6,4.6-4.6h57.6c2.5,0,4.6,2.1,4.6,4.6C119.9,121.4,117.9,123.5,115.3,123.5z"/>
<path d="M120.3,34.1H78.7c-4.1,0-7.5-3.3-7.5-7.5s3.3-7.5,7.5-7.5h41.5c4.1,0,7.5,3.3,7.5,7.5C127.8,30.8,124.4,34.1,120.3,34.1z"/>
</svg>
